<svg xmlns="http://www.w3.org/2000/svg" viewBox="0 0 595.3 841.9" style="enable-background:new 0 0 595.3 841.9"
  xml:space="preserve">
  <path
    d="M297.5 399c-8.8 0-16.3 5.1-19.9 12.4h19.7c5.4 0 9.8 4.4 9.8 9.8 0 1.9-.5 3.7-1.5 5.2-.8 1.3-2 2.5-3.3 3.3l2.1 2.4 1.3 1.4c.2-.1.4-.3.6-.5.2-.1.4-.3.6-.5 0 0 .1 0 .1-.1 3.3-2.8 5.2-6.9 5.2-11.2 0-3.9-1.5-7.6-4.3-10.4-.4-.4-.8-.7-1.2-1-.2-.2-.4-.3-.6-.4-.2-.1-.4-.3-.6-.4-.2-.1-.4-.3-.6-.4-.1-.1-.2-.1-.3-.2-.1-.1-.2-.1-.3-.2-.1 0-.1-.1-.2-.1s-.1-.1-.2-.1c-.1-.1-.2-.1-.4-.2h-.1c-.2-.1-.4-.2-.7-.3-.1 0-.1 0-.2-.1-.1 0-.2-.1-.3-.1-.2-.1-.4-.1-.6-.2-.2-.1-.3-.1-.5-.1-.1 0-.1 0-.2-.1-.1 0-.3-.1-.4-.1-.1 0-.2 0-.3-.1-.2 0-.4-.1-.6-.1-.2 0-.4-.1-.6-.1H296c-.2 0-.4 0-.6.1-.2 0-.4.1-.6.1-.1 0-.2 0-.3.1-.1 0-.3.1-.4.1-.1 0-.2 0-.3.1-.1 0-.3.1-.4.1-.2.1-.4.1-.6.2-.1 0-.2.1-.3.1-.1 0-.1 0-.2.1-.2.1-.4.2-.7.3h-.1c-.1.1-.3.1-.4.2-.1.1-.3.1-.4.2-.2.1-.4.2-.6.4-.2.1-.4.3-.6.4-.2.1-.4.3-.6.4-.1.1-.3.2-.4.3h-5.2c.1-.2.3-.3.4-.5l.3-.3.3-.3.3-.3.6-.6.3-.3.3-.3c.5-.4.9-.7 1.4-1.1.1-.1.3-.2.4-.3.4-.2.8-.5 1.2-.7.1-.1.2-.1.4-.2.5-.3 1.1-.5 1.6-.7.1 0 .2-.1.3-.1.3-.1.7-.3 1-.4.1 0 .3-.1.4-.1.1 0 .2-.1.3-.1.2 0 .3-.1.5-.1s.3-.1.5-.1c.5-.1 1-.2 1.5-.2h4.6c.5.1 1 .1 1.5.2.2 0 .3.1.5.1s.3.1.5.1c.1 0 .2 0 .3.1.1 0 .3.1.4.1.4.1.7.2 1 .4.1 0 .2.1.3.1.6.2 1.1.5 1.6.7.1.1.3.1.4.2.1.1.3.1.4.2.1.1.3.2.4.2.4.2.7.5 1.1.7l.4.3c.1.1.3.2.4.3.1.1.2.2.3.2.5.4.9.8 1.3 1.2l.3.3.3.3.3.3c.2.2.3.4.5.6 2.5 3.1 4 7.1 4 11.5 0 5.4-2.3 10.3-6.1 13.7-.2.2-.4.3-.6.5-.3.2-.5.4-.8.6-.1.1-.2.2-.4.3l2.5 2.8c5.5-4 9-10.5 9-17.8 0-12.3-10-22.2-22.2-22.2z"
    style="fill:#47c1ee" />
  <path
    d="m296.4 431-2.2-2.4-.2-.2-2.4-2.6h5.7c2.3 0 4.1-1.7 4.4-3.8v-.7c0-2.2-1.7-4.1-3.8-4.4-.2 0-.5-.1-.7-.1h-10v.1H283.4V417.2c0 .1-.1.2-.1.3 0 .1 0 .2-.1.2 0 .2-.1.3-.1.5v.2c0 .2-.1.5-.1.7 0 .2 0 .3-.1.5V422.5c0 .2 0 .3.1.5 0 .1 0 .3.1.4v.3c0 .3.1.5.2.8 0 .1.1.2.1.4v.1c.1.4.2.7.3 1.1.1.4.3.7.4 1.1.1.2.2.5.3.7.2.4.4.7.6 1 .1.1.1.2.2.3.1.1.1.2.2.3.1.2.3.4.5.6.1.1.2.2.2.3.3.4.6.7.9 1l.2.2c.3.3.6.6.9.8 0 0 .1 0 .1.1.2.2.3.3.5.4l.1.1c.1.1.2.1.2.2.1 0 .1.1.2.1.1.1.2.1.3.2 0 0 .1 0 .1.1.1.1.2.1.2.1.1 0 .2.1.2.1.1.1.2.1.3.2 2.2 1.3 4.7 2 7.3 2h.8l3 3.2c-1.2.3-2.5.4-3.9.4-2.1 0-4-.3-5.9-1-.2-.1-.5-.2-.7-.2-.2-.1-.5-.2-.7-.3-.5-.2-.9-.4-1.4-.7l-.6-.3c-.4-.2-.8-.5-1.2-.8-.2-.1-.4-.3-.6-.4-.1-.1-.3-.2-.4-.3-.1-.1-.3-.2-.4-.3-.2-.2-.4-.3-.6-.5-.4-.4-.9-.8-1.3-1.3l-.3-.3-.4-.4c-.1-.1-.2-.2-.3-.4-.2-.3-.4-.5-.6-.8-.1-.1-.2-.2-.2-.4-.1-.1-.2-.3-.3-.4-.1-.1-.2-.3-.2-.4l-.3-.6c-.1-.1-.1-.2-.2-.3-.1-.3-.3-.5-.4-.8-.2-.4-.3-.7-.5-1.1-.2-.5-.3-.9-.5-1.4 0-.1-.1-.3-.1-.4 0-.1 0-.2-.1-.2 0-.2-.1-.3-.1-.5 0-.1-.1-.3-.1-.4v-.3c0-.1-.1-.3-.1-.4 0-.2-.1-.3-.1-.5v-.9c0-.5-.1-.9-.1-1.4v-1.4c0-.2 0-.4.1-.7 0-.2.1-.4.1-.7 0-.1 0-.2.1-.4 0-.1 0-.3.1-.4 0-.1.1-.3.1-.4v-.1c0-.2.1-.3.1-.5h-3.8c-.3 1.4-.4 2.9-.4 4.4 0 12.2 9.9 22.2 22.2 22.2 3 0 6-.6 8.6-1.7l-5.5-5.9-4.1-4.6z"
    style="fill:#3d4147" />
</svg>
